# xmcd CD database file
#
# Track frame offsets:
#	150
#	4488
#	28209
#	60409
#	96133
#	112098
#	127788
#	156097
#	184345
#	193770
#	203714
#	212666
#	245686
#	269020
#	293224
#
# Disc length: 4058 seconds
#
# Revision: 0
# Processed by: cddbd v1.5.2PL0 Copyright (c) Steve Scherf et al.
# Submitted via: CDex 1.51
#
DISCID=e30fd80f
DTITLE=Various Artist - Blue Note Trip 10 [CD1)(Late Nights)
DYEAR=2012
DGENRE=Jazz
TTITLE0=Lou Rawls - Lifetime Monologue (2005 digital remaster) 
TTITLE1=Donald Byrd - Kofi 
TTITLE2=Marlena Shaw - Woman Of The Ghetto (live)
TTITLE3=Reuben Wilson - Bambu (digital remastered)
TTITLE4=Moacir Santos - Off and On 
TTITLE5=Doris - Beatmaker
TTITLE6=Grant Green - Let The Music Take Your Mind (live 2002 digital remaster)
TTITLE7=Horace Silver - The Sophisticated Hippie
TTITLE8=Nancy Wilson - Goin' Out Of My Head 
TTITLE9=Al Caiola - Underwater Chase (1996 digital remaster)
TTITLE10=Nina Simone - The Gal From Joe's (2004 digital remaster)
TTITLE11=Lee Morgan - Cornbread (2000 digital remaster - Rudy Van Gelder Edition)
TTITLE12=Horace Silver - The Gods Of The Yoruba
TTITLE13=Curtis Fuller - Oscalypso (Rudy Van Gelder Edition - 2008 digital remaster)
TTITLE14=Billy May - Mission Impossible (1996 remaster - Lalo Schifrin version)
EXTD=YEAR: 2012
EXTT0=
EXTT1=
EXTT2=
EXTT3=
EXTT4=
EXTT5=
EXTT6=
EXTT7=
EXTT8=
EXTT9=
EXTT10=
EXTT11=
EXTT12=
EXTT13=
EXTT14=
PLAYORDER=
